<svg width="30" height="30" viewBox="0 0 30 30" fill="none" xmlns="http://www.w3.org/2000/svg">
<path fill-rule="evenodd" clip-rule="evenodd" d="M19.0604 7.93955C19.3416 8.22084 19.4996 8.6023 19.4996 9.00005C19.4996 9.39779 19.3416 9.77925 19.0604 10.0605L14.1209 15L19.0604 19.9395C19.3337 20.2224 19.4849 20.6014 19.4814 20.9946C19.478 21.3879 19.3203 21.7642 19.0422 22.0423C18.764 22.3204 18.3878 22.4781 17.9945 22.4816C17.6012 22.485 17.2223 22.3338 16.9394 22.0605L10.9394 16.0605C10.6582 15.7793 10.5002 15.3978 10.5002 15C10.5002 14.6023 10.6582 14.2208 10.9394 13.9395L16.9394 7.93955C17.2207 7.65834 17.6022 7.50037 17.9999 7.50037C18.3977 7.50037 18.7791 7.65834 19.0604 7.93955Z" fill="#8A8A8A"/>
</svg>
